<?xml version="1.0" standalone="no"?>
<!DOCTYPE svg PUBLIC "-//W3C//DTD SVG 20010904//EN"
 "http://www.w3.org/TR/2001/REC-SVG-20010904/DTD/svg10.dtd">
<svg version="1.0" xmlns="http://www.w3.org/2000/svg"
 width="500.000000pt" height="500.000000pt" viewBox="0 0 500.000000 500.000000"
 preserveAspectRatio="xMidYMid meet">
<metadata>
Created by potrace 1.11, written by Peter Selinger 2001-2013
</metadata>
<g transform="translate(0.000000,500.000000) scale(0.100000,-0.100000)"
fill="#000000" stroke="none">
<path d="M4730 4501 c-41 -14 -79 -28 -85 -30 -5 -2 -20 -7 -33 -12 -13 -5
-28 -9 -33 -9 -5 0 -17 -4 -27 -9 -9 -5 -53 -23 -97 -39 -153 -57 -210 -80
-278 -111 -37 -17 -74 -31 -82 -31 -8 0 -15 -4 -15 -10 0 -5 -7 -10 -16 -10
-20 0 -143 -59 -163 -78 -7 -7 -19 -11 -26 -8 -8 3 -16 -2 -19 -10 -3 -8 -14
-14 -24 -14 -10 0 -22 -4 -27 -9 -6 -5 -61 -34 -122 -65 -62 -32 -115 -62
-118 -67 -4 -5 -11 -7 -16 -4 -5 4 -9 3 -9 -2 0 -4 -13 -14 -28 -21 -16 -6
-38 -21 -50 -32 -12 -11 -24 -20 -28 -20 -3 0 -19 -9 -35 -21 -16 -11 -29 -18
-29 -14 0 3 -6 1 -12 -5 -7 -6 -49 -34 -93 -62 -44 -28 -81 -55 -83 -59 -2 -5
-10 -9 -17 -9 -7 0 -15 -4 -17 -8 -1 -4 -32 -29 -68 -54 -36 -26 -74 -55 -85
-65 -11 -10 -29 -25 -41 -33 -11 -8 -51 -42 -89 -75 -37 -33 -73 -64 -81 -68
-8 -5 -12 -12 -9 -18 4 -5 1 -9 -5 -9 -15 0 -155 -147 -220 -231 -14 -18 -30
-38 -36 -44 -23 -22 -112 -161 -151 -234 -38 -73 -42 -77 -142 -138 -57 -35
-105 -63 -108 -63 -2 0 -11 -6 -18 -12 -34 -30 -45 -38 -45 -32 0 3 -7 0 -16
-7 -9 -7 -24 -18 -34 -24 -99 -55 -336 -201 -338 -207 -2 -4 -10 -8 -18 -8 -8
0 -14 -3 -14 -8 0 -4 -17 -16 -37 -27 -21 -11 -40 -23 -43 -26 -3 -4 -23 -17
-46 -30 -122 -72 -239 -145 -242 -151 -2 -5 -7 -8 -12 -8 -5 0 -44 -21 -87
-46 -43 -26 -123 -71 -178 -102 -55 -30 -107 -61 -115 -68 -8 -7 -19 -14 -25
-15 -5 -1 -26 -12 -45 -24 -19 -12 -59 -35 -89 -51 -30 -16 -61 -34 -70 -39
-9 -6 -67 -38 -129 -73 -62 -34 -119 -67 -125 -72 -7 -6 -30 -24 -52 -40 -72
-54 -98 -75 -112 -88 -7 -7 -13 -11 -13 -8 0 17 -104 -107 -129 -155 -41 -75
-46 -125 -20 -194 45 -120 206 -310 305 -359 136 -68 357 -70 552 -7 112 37
199 79 269 129 17 12 34 22 38 22 13 0 162 119 197 158 20 22 39 38 42 34 3
-3 6 -1 6 5 0 6 17 28 38 50 80 83 129 172 163 297 16 58 18 90 13 200 -10
218 -3 254 60 318 40 40 160 104 200 106 5 0 12 4 15 9 3 5 17 14 31 21 48 23
158 87 173 100 13 11 15 6 14 -45 0 -63 11 -215 18 -235 2 -7 7 -31 10 -53 4
-22 8 -44 9 -50 2 -5 6 -28 11 -50 4 -22 11 -44 15 -50 9 -11 25 -76 22 -87
-1 -5 2 -8 7 -8 5 0 12 -12 15 -27 15 -64 178 -385 213 -421 7 -7 13 -17 13
-21 0 -4 11 -21 24 -36 14 -16 23 -32 20 -36 -2 -4 3 -9 11 -13 8 -3 15 -9 15
-13 0 -15 -213 -227 -280 -280 -69 -54 -174 -107 -280 -142 -87 -29 -116 -70
-70 -98 16 -10 27 -9 64 6 24 11 47 17 50 14 3 -4 6 -1 6 5 0 7 11 12 25 12
14 0 25 5 25 10 0 6 6 10 14 10 44 0 249 132 305 195 17 20 31 33 31 29 0 -4
14 10 30 31 17 21 30 35 30 31 0 -4 15 10 33 31 17 21 37 44 44 50 18 19 46
19 238 -6 75 -10 493 -7 560 3 22 4 67 11 100 17 33 7 69 13 80 14 11 2 47 11
80 21 33 10 62 18 65 19 38 8 120 41 120 48 0 4 7 1 16 -7 36 -36 104 -66 179
-79 58 -10 145 -13 315 -10 237 4 326 15 417 49 l43 17 -52 35 c-29 19 -62 38
-73 43 -11 5 -36 19 -55 30 -19 12 -64 37 -100 57 -36 19 -72 41 -81 48 -9 8
-19 11 -22 7 -4 -3 -7 -1 -7 5 0 7 -6 12 -13 12 -7 0 -22 8 -33 17 -11 10 -26
19 -34 21 -8 2 -17 7 -20 11 -3 4 -13 10 -22 14 -14 5 -6 18 45 69 67 69 89
95 127 148 13 19 28 38 33 41 5 3 8 10 7 14 -1 4 6 17 16 29 52 63 160 285
207 426 59 176 65 198 82 288 3 15 10 41 15 57 8 26 26 119 44 230 3 17 8 55
11 85 3 30 8 78 11 105 24 199 23 674 -2 950 -4 44 -8 95 -8 112 -1 18 -3 33
-6 33 -3 0 -6 19 -6 43 -1 23 -4 58 -8 77 -4 19 -9 54 -11 77 -1 22 -5 45 -8
50 -3 5 -7 30 -8 56 -2 26 -7 47 -13 47 -5 0 -7 2 -4 5 3 3 1 27 -4 53 -5 26
-11 63 -14 82 -3 18 -6 35 -7 36 -1 1 -36 -10 -77 -25z m-3424 -2623 c5 -3 27
-11 49 -18 55 -18 102 -50 116 -80 30 -62 -3 -200 -74 -310 -53 -82 -110 -141
-217 -224 -47 -37 -92 -72 -100 -79 -8 -7 -18 -12 -23 -12 -4 0 -12 -7 -17
-15 -5 -8 -10 -10 -10 -5 0 6 -3 6 -8 0 -13 -19 -148 -75 -232 -96 -69 -18
-105 -21 -209 -17 -158 5 -212 26 -249 98 -44 85 -17 192 71 280 60 60 55 56
192 133 66 37 127 72 135 77 68 41 299 167 470 257 34 17 86 23 106 11z"/>
<path d="M530 4125 c-112 -24 -235 -103 -267 -171 -9 -19 -21 -34 -25 -34 -5
0 -7 -4 -4 -9 3 -5 -1 -14 -9 -21 -7 -6 -11 -18 -8 -26 3 -8 1 -14 -5 -14 -5
0 -13 -15 -16 -32 -3 -18 -9 -44 -12 -58 -10 -44 -16 -190 -8 -208 4 -9 6 -21
5 -25 -2 -9 52 -119 74 -149 28 -41 157 -168 170 -168 3 0 15 -8 25 -18 25
-23 66 -45 280 -153 96 -49 222 -113 280 -144 58 -31 168 -88 245 -127 77 -39
143 -76 146 -81 3 -5 10 -9 15 -9 13 -1 38 -11 44 -17 3 -4 48 -28 101 -55
l96 -49 49 28 c27 15 66 37 87 48 20 11 37 24 37 29 0 4 6 8 14 8 8 0 21 6 28
13 7 7 34 26 60 43 l48 30 -100 57 c-55 31 -104 57 -110 57 -5 0 -10 5 -10 10
0 6 -6 10 -14 10 -7 0 -24 8 -37 19 -13 10 -69 42 -123 70 -158 83 -204 121
-239 200 -17 39 -18 57 -12 170 4 69 8 142 9 161 4 82 -33 214 -80 286 -42 65
-167 194 -217 223 -71 43 -155 80 -218 96 -79 21 -227 26 -299 10z m200 -218
c0 3 7 0 15 -7 8 -7 15 -10 15 -6 0 3 26 -6 57 -19 103 -46 206 -144 256 -245
28 -57 32 -76 34 -156 2 -77 -1 -98 -20 -134 -30 -60 -64 -83 -129 -85 -131
-5 -440 151 -521 263 -100 138 -69 282 78 360 53 28 142 42 188 30 15 -3 27
-4 27 -1z"/>
</g>
</svg>
